PathFileType	4	(X/Y/Z)	C:\Users\WrightLab\Desktop\Jo\P1_boxCal26.trc
DataRate	CameraRate	NumFrames	NumMarkers	Units	OrigDataRate	OrigDataStartFrame	OrigNumFrames
100.00	100.00	       45	19	mm	100.00	1	       664
Frame#	Time	Headset_Front			Headset_Back			Headset_Left			Headset_Right			Left_Shoulder			Right_Shoulder			Sternum			C7			Left Elbow			Right Elbow			Left Wrist			Right Wrist			Left ASIS			Right ASIS			S2			Left Knee			Right Knee			Left Ankle			Right Ankle			
		X1	Y1	Z1	X2	Y2	Z2	X3	Y3	Z3	X4	Y4	Z4	X5	Y5	Z5	X6	Y6	Z6	X7	Y7	Z7	X8	Y8	Z8	X9	Y9	Z9	X10	Y10	Z10	X11	Y11	Z11	X12	Y12	Z12	X13	Y13	Z13	X14	Y14	Z14	X15	Y15	Z15	X16	Y16	Z16	X17	Y17	Z17	X18	Y18	Z18	X19	Y19	Z19	

1	0.000																																																	-245.97224	488.29483	2364.45850							
2	0.010																																																	-246.65982	487.51639	2363.53247							
3	0.020																																																	-247.33176	487.13693	2363.43018							
4	0.030																																																	-248.24643	486.98862	2363.45483							
5	0.040																																																	-250.71620	487.14410	2360.00171							
6	0.050																																																	-251.56241	486.96533	2360.20435							
7	0.060																																																	-252.55263	486.90012	2360.56958							
8	0.070																																																	-254.18367	487.25558	2358.74219							
9	0.080																																																	-255.92299	487.44055	2357.13281							
10	0.090																																																	-257.08829	487.36615	2357.71191							
11	0.100																																																	-258.44727	486.56973	2357.84375							
12	0.110																																																	-260.62308	487.64554	2354.89380							
13	0.120																																																	-261.74319	487.68076	2355.26782							
14	0.130																																																	-262.69220	487.48276	2355.69800							
15	0.140																																																	-264.23883	487.75180	2355.04468							
16	0.150																																																	-266.03851	487.68576	2354.01636							
17	0.160																																																	-267.26553	487.56461	2352.39502							
18	0.170																																																	-267.89474	487.22348	2352.54126							
19	0.180																																																	-269.69510	487.31454	2350.97632							
20	0.190																																																	-271.66293	487.18768	2349.23926							
21	0.200																																																	-272.67297	486.35400	2348.20386							
22	0.210																																																	-274.52850	485.96854	2345.25317							
23	0.220																																																	-275.93958	485.23743	2344.61816							
24	0.230																																																	-277.24136	484.57590	2343.60791							
25	0.240																																																	-279.65747	484.55585	2339.72900							
26	0.250																																																	-281.00400	485.06140	2338.99390							
27	0.260																																																	-283.57706	484.35794	2335.81860							
28	0.270																																																	-285.42609	483.57550	2334.36499							
29	0.280																																																	-287.81213	484.11386	2331.20776							
30	0.290																																																	-290.70514	482.54578	2326.84961							
31	0.300																																																	-292.84088	482.71625	2325.81079							
32	0.310																												-177.41396	1012.45917	2213.27100																			-295.75714	481.30029	2322.09399							
33	0.320																												-182.27266	1010.99451	2207.02246																			-299.12302	481.12909	2317.98584							
34	0.330																												-187.35860	1009.45996	2200.06299																			-302.25522	480.12726	2314.06006							
35	0.340																												-192.42578	1008.33362	2194.16382																			-305.12265	479.53775	2312.60718							
36	0.350																												-197.94437	1006.88110	2187.41309																			-308.64642	478.76349	2308.09668							
37	0.360																												-203.98245	1005.76001	2180.75513																			-312.56387	478.55966	2304.76831							
38	0.370																												-209.76218	1004.00977	2173.75317																			-315.88312	478.45377	2300.76343							
39	0.380																												-215.88066	1002.94476	2167.42554																			-319.67923	478.33853	2296.93384							
40	0.390																												-222.05249	1001.90332	2160.22314																			-323.70969	477.86118	2291.90015							
41	0.400																												-228.08286	1000.91479	2152.87012				-297.09369	853.49390	1947.90320													-326.88254	477.45859	2286.99878							
42	0.410																												-234.60893	999.91052	2145.21582				-303.68408	852.13232	1940.47900													-330.69440	477.23160	2281.47339							
43	0.420																												-241.96472	998.77264	2137.77026				-309.75964	850.41687	1933.88269													-334.72458	477.35342	2276.82129							
44	0.430																												-248.89754	997.05121	2129.43188				-315.86206	849.08221	1927.35889													-338.55457	477.21219	2270.75244							
45	0.440																												-257.05688	997.77338	2123.21997				-322.47626	847.68011	1921.11780													-343.65982	477.78784	2261.89990							
